<?xml version="1.0" encoding="UTF-8"?>
<!DOCTYPE svg PUBLIC "-//W3C//DTD SVG 1.1//EN" "http://www.w3.org/Graphics/SVG/1.1/DTD/svg11.dtd">
<svg xmlns="http://www.w3.org/2000/svg" version="1.1" width="128px" height="128px" style="shape-rendering:geometricPrecision; text-rendering:geometricPrecision; image-rendering:optimizeQuality; fill-rule:evenodd; clip-rule:evenodd" xmlns:xlink="http://www.w3.org/1999/xlink">
<g><path style="opacity:1" fill="#dfdfdf" d="M 74.5,2.5 C 76.6391,7.1954 77.6391,12.1954 77.5,17.5C 75.8008,17.6602 74.1341,17.4935 72.5,17C 72.5544,15.6491 72.0544,14.4824 71,13.5C 69.3437,14.7653 67.677,16.0987 66,17.5C 65.5172,18.448 65.3505,19.448 65.5,20.5C 64.0222,20.238 62.6888,20.5713 61.5,21.5C 63.5167,22.2191 65.1834,23.3857 66.5,25C 65.9681,27.0197 64.6348,27.853 62.5,27.5C 59.1611,25.7652 56.4944,26.4318 54.5,29.5C 53.5028,29.4701 52.8361,29.9701 52.5,31C 55.2147,37.8545 60.2147,40.1879 67.5,38C 68.0465,37.0754 68.7132,36.2421 69.5,35.5C 70.4519,37.0453 70.7852,38.712 70.5,40.5C 69.2638,42.649 68.2638,44.9823 67.5,47.5C 62.009,51.865 57.3423,51.1983 53.5,45.5C 53.1667,45.5 52.8333,45.5 52.5,45.5C 50.8861,42.231 48.2194,40.5643 44.5,40.5C 45.5376,36.7519 46.8709,33.0853 48.5,29.5C 48.6927,27.3122 47.8594,25.6455 46,24.5C 45.7074,17.0823 48.2074,10.7489 53.5,5.5C 60.0139,0.312241 67.0139,-0.687759 74.5,2.5 Z"/></g>
<g><path style="opacity:0.951" fill="#292828" d="M 52.5,2.5 C 52.3893,3.11742 52.056,3.61742 51.5,4C 52.4158,4.27842 53.0825,4.77842 53.5,5.5C 48.2074,10.7489 45.7074,17.0823 46,24.5C 47.8594,25.6455 48.6927,27.3122 48.5,29.5C 46.8709,33.0853 45.5376,36.7519 44.5,40.5C 48.2194,40.5643 50.8861,42.231 52.5,45.5C 51.2579,44.9566 49.9245,44.6233 48.5,44.5C 45.4896,45.3478 42.4896,45.8478 39.5,46C 50.1356,42.5062 49.8022,41.1729 38.5,42C 39.448,41.5172 40.448,41.3505 41.5,41.5C 41.9289,37.9756 43.4289,34.9756 46,32.5C 46.4955,30.5273 46.6621,28.5273 46.5,26.5C 45.0222,26.238 43.6888,26.5713 42.5,27.5C 35.7184,36.7389 31.385,47.0723 29.5,58.5C 28.506,59.9989 28.506,61.6656 29.5,63.5C 25.0237,59.545 24.357,54.8783 27.5,49.5C 28.9063,49.0269 29.573,48.0269 29.5,46.5C 30.9861,41.91 32.4861,37.2434 34,32.5C 36.8428,29.0053 39.5095,25.3386 42,21.5C 42.9523,13.5816 46.4523,7.24823 52.5,2.5 Z"/></g>
<g><path style="opacity:0.078" fill="#5e595a" d="M 89.5,14.5 C 90.3247,18.6472 90.8247,22.9805 91,27.5C 91.7172,28.0442 92.2172,28.7109 92.5,29.5C 91.5041,29.5858 90.6708,29.2524 90,28.5C 89.5008,23.8452 89.3342,19.1785 89.5,14.5 Z"/></g>
<g><path style="opacity:1" fill="#d0cccd" d="M 74.5,2.5 C 79.9869,3.81328 83.8202,7.14661 86,12.5C 87.0807,17.4698 87.414,22.4698 87,27.5C 86.3021,28.6906 85.4687,29.6906 84.5,30.5C 84.1667,30.5 83.8333,30.5 83.5,30.5C 80.9556,30.1043 78.7889,30.771 77,32.5C 76.2917,31.6195 75.4584,30.9528 74.5,30.5C 73.7589,27.5867 73.2589,24.5867 73,21.5C 71.8179,23.3436 70.6512,25.1769 69.5,27C 69.9783,28.3026 70.645,29.4693 71.5,30.5C 70.8501,30.8039 70.1835,31.1373 69.5,31.5C 68.3777,30.3698 67.0443,29.7031 65.5,29.5C 64.5,28.8333 63.5,28.1667 62.5,27.5C 64.6348,27.853 65.9681,27.0197 66.5,25C 65.1834,23.3857 63.5167,22.2191 61.5,21.5C 62.6888,20.5713 64.0222,20.238 65.5,20.5C 65.3505,19.448 65.5172,18.448 66,17.5C 67.677,16.0987 69.3437,14.7653 71,13.5C 72.0544,14.4824 72.5544,15.6491 72.5,17C 74.1341,17.4935 75.8008,17.6602 77.5,17.5C 77.6391,12.1954 76.6391,7.1954 74.5,2.5 Z"/></g>
<g><path style="opacity:1" fill="#8e8183" d="M 74.5,30.5 C 73.5,30.5 72.5,30.5 71.5,30.5C 70.645,29.4693 69.9783,28.3026 69.5,27C 70.6512,25.1769 71.8179,23.3436 73,21.5C 73.2589,24.5867 73.7589,27.5867 74.5,30.5 Z"/></g>
<g><path style="opacity:1" fill="#5b3941" d="M 62.5,27.5 C 63.5,28.1667 64.5,28.8333 65.5,29.5C 63.139,29.3259 60.8056,28.9926 58.5,28.5C 57.1667,28.8333 55.8333,29.1667 54.5,29.5C 56.4944,26.4318 59.1611,25.7652 62.5,27.5 Z"/></g>
<g><path style="opacity:1" fill="#df8fa8" d="M 58.5,28.5 C 56.9192,30.1417 56.2525,32.1417 56.5,34.5C 54.7868,33.3646 54.1201,31.698 54.5,29.5C 55.8333,29.1667 57.1667,28.8333 58.5,28.5 Z"/></g>
<g><path style="opacity:1" fill="#e32126" d="M 58.5,28.5 C 60.8056,28.9926 63.139,29.3259 65.5,29.5C 65.5,29.8333 65.5,30.1667 65.5,30.5C 67.6469,31.9321 67.9802,33.7655 66.5,36C 63.5,36.6667 60.5,36.6667 57.5,36C 56.944,35.6174 56.6107,35.1174 56.5,34.5C 56.2525,32.1417 56.9192,30.1417 58.5,28.5 Z"/></g>
<g><path style="opacity:1" fill="#402428" d="M 54.5,29.5 C 54.1201,31.698 54.7868,33.3646 56.5,34.5C 56.6107,35.1174 56.944,35.6174 57.5,36C 60.5,36.6667 63.5,36.6667 66.5,36C 67.9802,33.7655 67.6469,31.9321 65.5,30.5C 65.5,30.1667 65.5,29.8333 65.5,29.5C 67.0443,29.7031 68.3777,30.3698 69.5,31.5C 70.1835,31.1373 70.8501,30.8039 71.5,30.5C 72.5,30.5 73.5,30.5 74.5,30.5C 75.4584,30.9528 76.2917,31.6195 77,32.5C 78.7889,30.771 80.9556,30.1043 83.5,30.5C 81.58,31.0652 79.9133,32.0652 78.5,33.5C 76.9519,33.8212 76.2852,34.8212 76.5,36.5C 79.3854,36.8064 82.0521,36.4731 84.5,35.5C 85.1667,35.5 85.8333,35.5 86.5,35.5C 86.0679,36.7095 85.4013,37.7095 84.5,38.5C 83.6522,37.375 82.6522,37.375 81.5,38.5C 79.5,38.5 77.5,38.5 75.5,38.5C 75.7564,36.2075 75.4231,34.0408 74.5,32C 74.1667,31.8333 73.8333,31.6667 73.5,31.5C 72.5481,33.0453 72.2148,34.712 72.5,36.5C 72.0113,37.9952 71.3446,39.3285 70.5,40.5C 70.7852,38.712 70.4519,37.0453 69.5,35.5C 68.7132,36.2421 68.0465,37.0754 67.5,38C 60.2147,40.1879 55.2147,37.8545 52.5,31C 52.8361,29.9701 53.5028,29.4701 54.5,29.5 Z"/></g>
<g><path style="opacity:1" fill="#f90303" d="M 65.5,30.5 C 65.5394,31.5832 65.8728,32.5832 66.5,33.5C 63.8333,34.8333 61.1667,34.8333 58.5,33.5C 60.0625,30.9711 62.3959,29.9711 65.5,30.5 Z"/></g>
<g><path style="opacity:1" fill="#d0708a" d="M 78.5,33.5 C 79.9179,35.3079 81.9179,35.9746 84.5,35.5C 82.0521,36.4731 79.3854,36.8064 76.5,36.5C 76.2852,34.8212 76.9519,33.8212 78.5,33.5 Z"/></g>
<g><path style="opacity:1" fill="#d1292f" d="M 83.5,30.5 C 83.8333,30.5 84.1667,30.5 84.5,30.5C 85.8333,30.5 87.1667,30.5 88.5,30.5C 88.7709,32.3797 88.1042,33.713 86.5,34.5C 86.5,34.8333 86.5,35.1667 86.5,35.5C 85.8333,35.5 85.1667,35.5 84.5,35.5C 81.9179,35.9746 79.9179,35.3079 78.5,33.5C 79.9133,32.0652 81.58,31.0652 83.5,30.5 Z"/></g>
<g><path style="opacity:1" fill="#ed090c" d="M 86.5,34.5 C 84.1432,34.6633 81.8098,34.4966 79.5,34C 82.184,31.8551 84.5173,32.0217 86.5,34.5 Z"/></g>
<g><path style="opacity:0.008" fill="#a9a2b0" d="M 92.5,32.5 C 91.8897,34.4341 90.8897,36.1007 89.5,37.5C 89.2729,35.0672 90.2729,33.4006 92.5,32.5 Z"/></g>
<g><path style="opacity:1" fill="#848082" d="M 81.5,38.5 C 80.5514,39.1524 79.3847,39.4857 78,39.5C 75.6241,39.3154 73.7908,38.3154 72.5,36.5C 72.2148,34.712 72.5481,33.0453 73.5,31.5C 73.8333,31.6667 74.1667,31.8333 74.5,32C 75.4231,34.0408 75.7564,36.2075 75.5,38.5C 77.5,38.5 79.5,38.5 81.5,38.5 Z"/></g>
<g><path style="opacity:0.929" fill="#473f40" d="M 115.5,45.5 C 115.756,43.2075 115.423,41.0408 114.5,39C 111.833,38.3333 109.167,38.3333 106.5,39C 105.289,39.8928 105.289,40.7261 106.5,41.5C 109.475,39.9827 110.142,40.6494 108.5,43.5C 109.304,45.136 110.304,46.636 111.5,48C 109.172,47.1963 106.839,47.3629 104.5,48.5C 103.167,48.8333 101.833,49.1667 100.5,49.5C 101.925,48.078 102.925,46.4113 103.5,44.5C 104.686,43.0387 104.686,41.7054 103.5,40.5C 103.937,38.9256 104.937,37.7589 106.5,37C 114.817,34.8198 117.817,37.6532 115.5,45.5 Z"/></g>
<g><path style="opacity:1" fill="#cfc6c7" d="M 72.5,36.5 C 73.7908,38.3154 75.6241,39.3154 78,39.5C 79.3847,39.4857 80.5514,39.1524 81.5,38.5C 82.6522,37.375 83.6522,37.375 84.5,38.5C 82.1314,45.5353 77.4648,50.2019 70.5,52.5C 68.8235,51.8166 68.1568,50.4832 68.5,48.5C 69.7496,45.994 70.4162,43.3274 70.5,40.5C 71.3446,39.3285 72.0113,37.9952 72.5,36.5 Z"/></g>
<g><path style="opacity:1" fill="#4c4647" d="M 70.5,40.5 C 70.4162,43.3274 69.7496,45.994 68.5,48.5C 67.8333,48.5 67.5,48.1667 67.5,47.5C 68.2638,44.9823 69.2638,42.649 70.5,40.5 Z"/></g>
<g><path style="opacity:1" fill="#e0ddde" d="M 52.5,45.5 C 52.5,48.8333 52.5,52.1667 52.5,55.5C 50.712,55.7852 49.0453,55.4519 47.5,54.5C 48.0253,53.8076 48.6919,53.3076 49.5,53C 48.9647,50.8913 47.9647,50.3913 46.5,51.5C 46.5415,54.4753 46.2082,57.4753 45.5,60.5C 44.2905,60.9321 43.2905,61.5987 42.5,62.5C 37.0211,64.6497 32.6878,63.3164 29.5,58.5C 31.385,47.0723 35.7184,36.7389 42.5,27.5C 43.6888,26.5713 45.0222,26.238 46.5,26.5C 46.6621,28.5273 46.4955,30.5273 46,32.5C 43.4289,34.9756 41.9289,37.9756 41.5,41.5C 40.448,41.3505 39.448,41.5172 38.5,42C 49.8022,41.1729 50.1356,42.5062 39.5,46C 42.4896,45.8478 45.4896,45.3478 48.5,44.5C 49.9245,44.6233 51.2579,44.9566 52.5,45.5 Z"/></g>
<g><path style="opacity:0.996" fill="#161414" d="M 103.5,40.5 C 104.686,41.7054 104.686,43.0387 103.5,44.5C 98.4805,48.6722 93.1471,52.3388 87.5,55.5C 86.9569,55.44 86.6236,55.1067 86.5,54.5C 87.9527,52.8152 89.286,51.1486 90.5,49.5C 92.9328,49.7271 94.5994,48.7271 95.5,46.5C 97.4426,43.5293 100.109,41.5293 103.5,40.5 Z"/></g>
<g><path style="opacity:0.157" fill="#aaaaaa" d="M 29.5,46.5 C 29.573,48.0269 28.9063,49.0269 27.5,49.5C 27.427,47.9731 28.0937,46.9731 29.5,46.5 Z"/></g>
<g><path style="opacity:1" fill="#413a39" d="M 52.5,45.5 C 52.8333,45.5 53.1667,45.5 53.5,45.5C 53.3896,48.0588 54.0562,50.3921 55.5,52.5C 59.7649,53.4386 64.0983,53.7719 68.5,53.5C 65.6946,54.3195 62.6946,54.8195 59.5,55C 58.944,55.3826 58.6107,55.8826 58.5,56.5C 56.8828,55.962 55.2161,55.6287 53.5,55.5C 53.5,57.5 53.5,59.5 53.5,61.5C 52.8826,61.3893 52.3826,61.056 52,60.5C 51.51,61.7932 51.3433,63.1266 51.5,64.5C 50.5041,64.5858 49.6708,64.2524 49,63.5C 48.5045,61.5273 48.3379,59.5273 48.5,57.5C 50.4832,57.8432 51.8166,57.1765 52.5,55.5C 52.5,52.1667 52.5,48.8333 52.5,45.5 Z"/></g>
<g><path style="opacity:0.282" fill="#959291" d="M 95.5,46.5 C 94.5994,48.7271 92.9328,49.7271 90.5,49.5C 91.8993,48.1103 93.5659,47.1103 95.5,46.5 Z"/></g>
<g><path style="opacity:1" fill="#a9a7a7" d="M 53.5,45.5 C 57.3423,51.1983 62.009,51.865 67.5,47.5C 67.5,48.1667 67.8333,48.5 68.5,48.5C 68.1568,50.4832 68.8235,51.8166 70.5,52.5C 70.1583,53.3382 69.4916,53.6716 68.5,53.5C 64.0983,53.7719 59.7649,53.4386 55.5,52.5C 54.0562,50.3921 53.3896,48.0588 53.5,45.5 Z"/></g>
<g><path style="opacity:1" fill="#7a7273" d="M 103.5,44.5 C 102.925,46.4113 101.925,48.078 100.5,49.5C 99.0892,51.914 97.0892,53.5806 94.5,54.5C 91.2295,56.5912 88.0628,58.9245 85,61.5C 84.5065,63.1341 84.3398,64.8008 84.5,66.5C 84.0269,67.9063 83.0269,68.573 81.5,68.5C 80.1151,65.6424 80.4484,62.9758 82.5,60.5C 84.5,59.1667 86.1667,57.5 87.5,55.5C 93.1471,52.3388 98.4805,48.6722 103.5,44.5 Z"/></g>
<g><path style="opacity:0.987" fill="#312f2f" d="M 90.5,49.5 C 89.286,51.1486 87.9527,52.8152 86.5,54.5C 86.6236,55.1067 86.9569,55.44 87.5,55.5C 86.1667,57.5 84.5,59.1667 82.5,60.5C 81.0903,59.1716 79.9236,59.5049 79,61.5C 78.5172,60.552 78.3505,59.552 78.5,58.5C 82.5185,55.4756 86.5185,52.4756 90.5,49.5 Z"/></g>
<g><path style="opacity:1" fill="#a27477" d="M 104.5,48.5 C 102.833,50.5 101.167,52.5 99.5,54.5C 97.2512,55.0798 95.5846,56.4131 94.5,58.5C 94.1667,58.5 93.8333,58.5 93.5,58.5C 92.9569,58.44 92.6236,58.1067 92.5,57.5C 93.1925,56.4822 93.8592,55.4822 94.5,54.5C 97.0892,53.5806 99.0892,51.914 100.5,49.5C 101.833,49.1667 103.167,48.8333 104.5,48.5 Z"/></g>
<g><path style="opacity:1" fill="#5e4949" d="M 98.5,65.5 C 99.404,64.791 99.7373,63.791 99.5,62.5C 100.98,60.0647 100.48,59.3981 98,60.5C 96.5405,60.1918 95.3739,59.5251 94.5,58.5C 95.5846,56.4131 97.2512,55.0798 99.5,54.5C 102.1,53.0812 104.6,51.4146 107,49.5C 108.422,49.5943 109.922,49.9276 111.5,50.5C 110.965,52.2705 110.131,52.6039 109,51.5C 108.667,52.8333 108.333,54.1667 108,55.5C 103.623,57.38 101.457,60.7134 101.5,65.5C 100.313,66.6527 99.3132,66.6527 98.5,65.5 Z"/></g>
<g><path style="opacity:0.969" fill="#1e1718" d="M 55.5,-0.5 C 63.5,-0.5 71.5,-0.5 79.5,-0.5C 84.3314,3.36188 87.6648,8.36188 89.5,14.5C 89.3342,19.1785 89.5008,23.8452 90,28.5C 90.6708,29.2524 91.5041,29.5858 92.5,29.5C 92.5,30.5 92.5,31.5 92.5,32.5C 90.2729,33.4006 89.2729,35.0672 89.5,37.5C 87.0521,43.3966 83.3855,48.3966 78.5,52.5C 77.5713,53.6888 77.238,55.0222 77.5,56.5C 77.2317,59.1194 77.565,61.6194 78.5,64C 77.552,64.4828 76.552,64.6495 75.5,64.5C 75.5,67.1667 75.5,69.8333 75.5,72.5C 74.2976,71.5946 72.9643,71.5946 71.5,72.5C 67.9027,75.8078 63.5693,77.1412 58.5,76.5C 58.4196,80.1649 57.4196,83.4983 55.5,86.5C 55.8333,87.8333 56.1667,89.1667 56.5,90.5C 56.762,91.9778 56.4287,93.3112 55.5,94.5C 54.269,93.3493 54.269,92.1827 55.5,91C 52.0569,90.7787 51.7236,89.7787 54.5,88C 54.1667,85 52.5,83.3333 49.5,83C 51.9005,82.8142 54.2338,82.3142 56.5,81.5C 55.8333,80.5 55.1667,79.5 54.5,78.5C 56.162,77.6733 57.4954,76.5067 58.5,75C 55.5488,74.904 52.8822,74.0707 50.5,72.5C 49.3192,70.8647 49.3192,69.198 50.5,67.5C 48.2975,65.7046 47.1308,63.3712 47,60.5C 46.31,61.7383 45.81,61.7383 45.5,60.5C 46.2082,57.4753 46.5415,54.4753 46.5,51.5C 47.9647,50.3913 48.9647,50.8913 49.5,53C 48.6919,53.3076 48.0253,53.8076 47.5,54.5C 49.0453,55.4519 50.712,55.7852 52.5,55.5C 51.8166,57.1765 50.4832,57.8432 48.5,57.5C 48.3379,59.5273 48.5045,61.5273 49,63.5C 49.6708,64.2524 50.5041,64.5858 51.5,64.5C 52.9063,64.9731 53.573,65.9731 53.5,67.5C 50.4271,68.7327 50.0938,70.2327 52.5,72C 56.5,72.6667 60.5,72.6667 64.5,72C 63.944,71.6174 63.6107,71.1174 63.5,70.5C 65.099,70.7678 66.4324,70.4345 67.5,69.5C 67.5,69.1667 67.5,68.8333 67.5,68.5C 68.1667,68.5 68.5,68.1667 68.5,67.5C 71.2767,64.0222 72.1101,60.0222 71,55.5C 70.7679,56.7375 70.2679,57.7375 69.5,58.5C 69.5,57.5 69.5,56.5 69.5,55.5C 66.2869,55.19 63.2869,55.5233 60.5,56.5C 60.5,57.1667 60.5,57.8333 60.5,58.5C 60.5,59.1667 60.5,59.8333 60.5,60.5C 58.8958,59.713 58.2291,58.3797 58.5,56.5C 58.6107,55.8826 58.944,55.3826 59.5,55C 62.6946,54.8195 65.6946,54.3195 68.5,53.5C 69.4916,53.6716 70.1583,53.3382 70.5,52.5C 77.4648,50.2019 82.1314,45.5353 84.5,38.5C 85.4013,37.7095 86.0679,36.7095 86.5,35.5C 86.5,35.1667 86.5,34.8333 86.5,34.5C 88.1042,33.713 88.7709,32.3797 88.5,30.5C 87.1667,30.5 85.8333,30.5 84.5,30.5C 85.4687,29.6906 86.3021,28.6906 87,27.5C 87.414,22.4698 87.0807,17.4698 86,12.5C 83.8202,7.14661 79.9869,3.81328 74.5,2.5C 67.0139,-0.687759 60.0139,0.312241 53.5,5.5C 53.0825,4.77842 52.4158,4.27842 51.5,4C 52.056,3.61742 52.3893,3.11742 52.5,2.5C 53.6935,1.72813 54.6935,0.728127 55.5,-0.5 Z"/></g>
<g><path style="opacity:1" fill="#751413" d="M 60.5,56.5 C 62.5,56.5 64.5,56.5 66.5,56.5C 66.5,57.5 66.5,58.5 66.5,59.5C 64.3792,59.6747 62.3792,59.3414 60.5,58.5C 60.5,57.8333 60.5,57.1667 60.5,56.5 Z"/></g>
<g><path style="opacity:1" fill="#5c3a3e" d="M 73.5,56.5 C 75.9689,57.6067 76.9689,59.6067 76.5,62.5C 75.5,62.5 74.5,62.5 73.5,62.5C 73.5,60.5 73.5,58.5 73.5,56.5 Z"/></g>
<g><path style="opacity:1" fill="#e0dddc" d="M 58.5,56.5 C 58.2291,58.3797 58.8958,59.713 60.5,60.5C 60.449,66.7136 58.449,67.7136 54.5,63.5C 54.6716,62.5084 54.3382,61.8417 53.5,61.5C 53.5,59.5 53.5,57.5 53.5,55.5C 55.2161,55.6287 56.8828,55.962 58.5,56.5 Z"/></g>
<g><path style="opacity:1" fill="#451415" d="M 60.5,56.5 C 63.2869,55.5233 66.2869,55.19 69.5,55.5C 69.5,56.5 69.5,57.5 69.5,58.5C 68.5975,61.3915 68.2641,64.3915 68.5,67.5C 68.5,68.1667 68.1667,68.5 67.5,68.5C 67.5,66.1667 67.5,63.8333 67.5,61.5C 65.5,61.5 63.5,61.5 61.5,61.5C 61.5668,63.4008 61.2335,65.2341 60.5,67C 60.8361,68.0299 61.5028,68.5299 62.5,68.5C 63.9187,69.4511 65.5853,69.7845 67.5,69.5C 66.4324,70.4345 65.099,70.7678 63.5,70.5C 62.5,70.5 61.5,70.5 60.5,70.5C 57.7872,68.7865 55.7872,66.4532 54.5,63.5C 58.449,67.7136 60.449,66.7136 60.5,60.5C 60.5,59.8333 60.5,59.1667 60.5,58.5C 62.3792,59.3414 64.3792,59.6747 66.5,59.5C 66.5,58.5 66.5,57.5 66.5,56.5C 64.5,56.5 62.5,56.5 60.5,56.5 Z"/></g>
<g><path style="opacity:1" fill="#483737" d="M 94.5,54.5 C 93.8592,55.4822 93.1925,56.4822 92.5,57.5C 92.6236,58.1067 92.9569,58.44 93.5,58.5C 91.1051,61.8615 88.1051,64.5281 84.5,66.5C 84.3398,64.8008 84.5065,63.1341 85,61.5C 88.0628,58.9245 91.2295,56.5912 94.5,54.5 Z"/></g>
<g><path style="opacity:1" fill="#e9e7e7" d="M 68.5,67.5 C 68.2641,64.3915 68.5975,61.3915 69.5,58.5C 70.2679,57.7375 70.7679,56.7375 71,55.5C 72.1101,60.0222 71.2767,64.0222 68.5,67.5 Z"/></g>
<g><path style="opacity:1" fill="#724245" d="M 53.5,61.5 C 54.3382,61.8417 54.6716,62.5084 54.5,63.5C 55.7872,66.4532 57.7872,68.7865 60.5,70.5C 59.7494,71.5735 58.7494,71.7401 57.5,71C 56.6159,69.2802 55.2825,68.1135 53.5,67.5C 53.573,65.9731 52.9063,64.9731 51.5,64.5C 51.3433,63.1266 51.51,61.7932 52,60.5C 52.3826,61.056 52.8826,61.3893 53.5,61.5 Z"/></g>
<g><path style="opacity:1" fill="#231e1e" d="M 115.5,45.5 C 115.664,48.1873 115.497,50.854 115,53.5C 112,56.8333 109,60.1667 106,63.5C 109.084,74.1548 105.918,82.3215 96.5,88C 92.3891,88.465 88.3891,87.965 84.5,86.5C 84.5,84.8333 84.5,83.1667 84.5,81.5C 82.6203,81.7709 81.287,81.1042 80.5,79.5C 79.4523,77.0673 78.7856,77.0673 78.5,79.5C 77.4306,76.8044 78.4306,74.8044 81.5,73.5C 81.7165,76.8867 83.5498,78.8867 87,79.5C 92.7648,77.2642 92.9315,74.5975 87.5,71.5C 87.5,71.1667 87.5,70.8333 87.5,70.5C 89.34,68.832 91.34,67.332 93.5,66C 89.7653,65.5622 87.0986,67.0622 85.5,70.5C 83.6203,70.7709 82.287,70.1042 81.5,68.5C 83.0269,68.573 84.0269,67.9063 84.5,66.5C 88.1051,64.5281 91.1051,61.8615 93.5,58.5C 93.8333,58.5 94.1667,58.5 94.5,58.5C 95.3739,59.5251 96.5405,60.1918 98,60.5C 100.48,59.3981 100.98,60.0647 99.5,62.5C 97.8621,61.8411 96.1955,61.1744 94.5,60.5C 92.7576,64.4343 94.091,66.101 98.5,65.5C 99.3132,66.6527 100.313,66.6527 101.5,65.5C 101.457,60.7134 103.623,57.38 108,55.5C 108.333,54.1667 108.667,52.8333 109,51.5C 110.131,52.6039 110.965,52.2705 111.5,50.5C 109.922,49.9276 108.422,49.5943 107,49.5C 104.6,51.4146 102.1,53.0812 99.5,54.5C 101.167,52.5 102.833,50.5 104.5,48.5C 106.839,47.3629 109.172,47.1963 111.5,48C 110.304,46.636 109.304,45.136 108.5,43.5C 110.142,40.6494 109.475,39.9827 106.5,41.5C 105.289,40.7261 105.289,39.8928 106.5,39C 109.167,38.3333 111.833,38.3333 114.5,39C 115.423,41.0408 115.756,43.2075 115.5,45.5 Z"/></g>
<g><path style="opacity:1" fill="#ddd7d8" d="M 99.5,62.5 C 99.7373,63.791 99.404,64.791 98.5,65.5C 94.091,66.101 92.7576,64.4343 94.5,60.5C 96.1955,61.1744 97.8621,61.8411 99.5,62.5 Z"/></g>
<g><path style="opacity:1" fill="#8b191c" d="M 67.5,68.5 C 67.5,68.8333 67.5,69.1667 67.5,69.5C 65.5853,69.7845 63.9187,69.4511 62.5,68.5C 61.5028,68.5299 60.8361,68.0299 60.5,67C 61.2335,65.2341 61.5668,63.4008 61.5,61.5C 63.5,61.5 65.5,61.5 67.5,61.5C 67.5,63.8333 67.5,66.1667 67.5,68.5 Z"/></g>
<g><path style="opacity:1" fill="#b30a0c" d="M 62.5,68.5 C 62.5,66.5 62.5,64.5 62.5,62.5C 63.8333,62.5 65.1667,62.5 66.5,62.5C 66.5,64.5 66.5,66.5 66.5,68.5C 65.1667,68.5 63.8333,68.5 62.5,68.5 Z"/></g>
<g><path style="opacity:1" fill="#6f4644" d="M 71.5,72.5 C 70.5028,72.5299 69.8361,72.0299 69.5,71C 70.2779,68.6101 71.4445,66.4434 73,64.5C 73.9907,65.4296 74.4907,66.5962 74.5,68C 73.9923,69.8926 72.9923,71.3926 71.5,72.5 Z"/></g>
<g><path style="opacity:1" fill="#78797b" d="M 87.5,70.5 C 86.8333,70.5 86.1667,70.5 85.5,70.5C 87.0986,67.0622 89.7653,65.5622 93.5,66C 91.34,67.332 89.34,68.832 87.5,70.5 Z"/></g>
<g><path style="opacity:1" fill="#b6b5b6" d="M 93.5,67.5 C 98.6959,68.5855 98.6959,69.4188 93.5,70C 91.6407,73.4264 90.8073,73.2597 91,69.5C 91.9947,68.9341 92.828,68.2674 93.5,67.5 Z"/></g>
<g><path style="opacity:1" fill="#545053" d="M 53.5,67.5 C 55.2825,68.1135 56.6159,69.2802 57.5,71C 58.7494,71.7401 59.7494,71.5735 60.5,70.5C 61.5,70.5 62.5,70.5 63.5,70.5C 63.6107,71.1174 63.944,71.6174 64.5,72C 60.5,72.6667 56.5,72.6667 52.5,72C 50.0938,70.2327 50.4271,68.7327 53.5,67.5 Z"/></g>
<g><path style="opacity:1" fill="#dad6d6" d="M 94.5,70.5 C 97.2706,70.4207 99.9373,70.9207 102.5,72C 103.517,73.0495 103.684,74.2161 103,75.5C 99.5506,75.7265 96.384,76.2265 93.5,77C 92.4204,74.7009 92.7537,72.5342 94.5,70.5 Z"/></g>
<g><path style="opacity:0.339" fill="#555554" d="M 31.5,65.5 C 34.1667,65.5 36.8333,65.5 39.5,65.5C 39.8235,72.0221 39.4902,78.3554 38.5,84.5C 38.5,78.5 38.5,72.5 38.5,66.5C 35.9407,66.8016 33.6074,66.4682 31.5,65.5 Z"/></g>
<g><path style="opacity:1" fill="#d5d2d3" d="M 87.5,71.5 C 92.9315,74.5975 92.7648,77.2642 87,79.5C 83.5498,78.8867 81.7165,76.8867 81.5,73.5C 82.9899,71.7202 84.9899,71.0535 87.5,71.5 Z"/></g>
<g><path style="opacity:1" fill="#6d3839" d="M 75.5,74.5 C 75.8182,79.0323 75.4849,83.3656 74.5,87.5C 74.665,84.1501 74.4983,80.8168 74,77.5C 73.8019,79.3817 73.3019,81.0484 72.5,82.5C 72.3512,79.3926 72.8512,76.3926 74,73.5C 74.3826,74.056 74.8826,74.3893 75.5,74.5 Z"/></g>
<g><path style="opacity:0.986" fill="#0e0d0f" d="M 29.5,58.5 C 32.6878,63.3164 37.0211,64.6497 42.5,62.5C 42.9382,62.4346 43.2716,62.6012 43.5,63C 43.2257,73.3694 41.8924,83.5361 39.5,93.5C 38.8826,93.6107 38.3826,93.944 38,94.5C 37.5026,91.854 37.3359,89.1873 37.5,86.5C 37.3284,85.5084 37.6618,84.8417 38.5,84.5C 39.4902,78.3554 39.8235,72.0221 39.5,65.5C 36.8333,65.5 34.1667,65.5 31.5,65.5C 30.1667,65.5 29.5,64.8333 29.5,63.5C 28.506,61.6656 28.506,59.9989 29.5,58.5 Z"/></g>
<g><path style="opacity:1" fill="#a87e81" d="M 89.5,79.5 C 90.552,79.3505 91.552,79.5172 92.5,80C 91.4911,82.1718 89.8244,83.3385 87.5,83.5C 87.5271,81.8007 88.1938,80.4674 89.5,79.5 Z"/></g>
<g><path style="opacity:1" fill="#80716f" d="M 95.5,78.5 C 97.1667,78.5 98.8333,78.5 100.5,78.5C 99.3134,81.3666 97.3134,83.7 94.5,85.5C 93.3279,85.0814 92.3279,84.4147 91.5,83.5C 92.8569,81.8144 94.1902,80.1477 95.5,78.5 Z"/></g>
<g><path style="opacity:1" fill="#484748" d="M 45.5,60.5 C 45.81,61.7383 46.31,61.7383 47,60.5C 47.1308,63.3712 48.2975,65.7046 50.5,67.5C 49.3192,69.198 49.3192,70.8647 50.5,72.5C 52.8822,74.0707 55.5488,74.904 58.5,75C 57.4954,76.5067 56.162,77.6733 54.5,78.5C 55.1667,79.5 55.8333,80.5 56.5,81.5C 54.2338,82.3142 51.9005,82.8142 49.5,83C 52.5,83.3333 54.1667,85 54.5,88C 51.7236,89.7787 52.0569,90.7787 55.5,91C 54.269,92.1827 54.269,93.3493 55.5,94.5C 56.4287,93.3112 56.762,91.9778 56.5,90.5C 57.2389,90.369 57.9056,90.5357 58.5,91C 57.1271,94.0966 58.1271,96.2632 61.5,97.5C 57.1989,97.8227 53.5322,99.4894 50.5,102.5C 49.6143,101.675 49.281,100.675 49.5,99.5C 46.8652,98.3169 44.1985,97.4836 41.5,97C 39.0779,99.0027 38.2446,101.503 39,104.5C 40.6255,104.854 42.4588,104.854 44.5,104.5C 44.3965,109.644 45.5632,110.31 48,106.5C 50.0236,108.854 52.0236,111.187 54,113.5C 57.2126,111.846 60.0459,112.179 62.5,114.5C 60.3428,116.412 58.0094,118.079 55.5,119.5C 52.5379,120.009 49.8712,121.009 47.5,122.5C 41.2793,120.277 36.6127,116.277 33.5,110.5C 35.2041,104.752 37.2041,99.0857 39.5,93.5C 41.8924,83.5361 43.2257,73.3694 43.5,63C 43.2716,62.6012 42.9382,62.4346 42.5,62.5C 43.2905,61.5987 44.2905,60.9321 45.5,60.5 Z"/></g>
<g><path style="opacity:1" fill="#a45051" d="M 74.5,87.5 C 74.5,87.8333 74.5,88.1667 74.5,88.5C 73.194,90.4727 71.5273,92.1394 69.5,93.5C 70.6129,89.7624 71.6129,86.0958 72.5,82.5C 73.3019,81.0484 73.8019,79.3817 74,77.5C 74.4983,80.8168 74.665,84.1501 74.5,87.5 Z"/></g>
<g><path style="opacity:0.043" fill="#9f9c9d" d="M 80.5,79.5 C 79.8333,82.5 79.1667,85.5 78.5,88.5C 78.5,85.5 78.5,82.5 78.5,79.5C 78.7856,77.0673 79.4523,77.0673 80.5,79.5 Z"/></g>
<g><path style="opacity:1" fill="#4c4141" d="M 75.5,72.5 C 75.5,73.1667 75.5,73.8333 75.5,74.5C 74.8826,74.3893 74.3826,74.056 74,73.5C 72.8512,76.3926 72.3512,79.3926 72.5,82.5C 71.6129,86.0958 70.6129,89.7624 69.5,93.5C 67.9689,94.9245 68.3023,95.5912 70.5,95.5C 68.1135,97.6338 65.7802,97.3004 63.5,94.5C 64.8532,93.4763 65.5198,92.143 65.5,90.5C 63.4727,90.6621 61.4727,90.4955 59.5,90C 61.0016,89.4169 62.3349,88.5836 63.5,87.5C 60.9135,86.52 58.2469,86.1866 55.5,86.5C 57.4196,83.4983 58.4196,80.1649 58.5,76.5C 63.5693,77.1412 67.9027,75.8078 71.5,72.5C 72.9643,71.5946 74.2976,71.5946 75.5,72.5 Z"/></g>
<g><path style="opacity:0.985" fill="#282829" d="M 37.5,86.5 C 37.3359,89.1873 37.5026,91.854 38,94.5C 38.3826,93.944 38.8826,93.6107 39.5,93.5C 37.2041,99.0857 35.2041,104.752 33.5,110.5C 33.5,112.167 33.5,113.833 33.5,115.5C 31.9409,113.392 30.6076,111.059 29.5,108.5C 32.7852,101.304 35.4519,93.9708 37.5,86.5 Z"/></g>
<g><path style="opacity:1" fill="#3e3d3d" d="M 55.5,86.5 C 58.2469,86.1866 60.9135,86.52 63.5,87.5C 62.3349,88.5836 61.0016,89.4169 59.5,90C 61.4727,90.4955 63.4727,90.6621 65.5,90.5C 65.5198,92.143 64.8532,93.4763 63.5,94.5C 65.7802,97.3004 68.1135,97.6338 70.5,95.5C 71.1217,94.3734 71.955,93.3734 73,92.5C 73.4996,99.4921 73.6663,106.492 73.5,113.5C 74.5,113.5 75.5,113.5 76.5,113.5C 69.9293,118.868 62.4293,122.535 54,124.5C 51.6005,124.198 49.4338,123.532 47.5,122.5C 49.8712,121.009 52.5379,120.009 55.5,119.5C 58.0094,118.079 60.3428,116.412 62.5,114.5C 60.0459,112.179 57.2126,111.846 54,113.5C 52.0236,111.187 50.0236,108.854 48,106.5C 45.5632,110.31 44.3965,109.644 44.5,104.5C 42.4588,104.854 40.6255,104.854 39,104.5C 38.2446,101.503 39.0779,99.0027 41.5,97C 44.1985,97.4836 46.8652,98.3169 49.5,99.5C 49.281,100.675 49.6143,101.675 50.5,102.5C 53.5322,99.4894 57.1989,97.8227 61.5,97.5C 58.1271,96.2632 57.1271,94.0966 58.5,91C 57.9056,90.5357 57.2389,90.369 56.5,90.5C 56.1667,89.1667 55.8333,87.8333 55.5,86.5 Z"/></g>
<g><path style="opacity:1" fill="#512e2e" d="M 74.5,88.5 C 76.2838,96.7065 76.9505,105.04 76.5,113.5C 75.5,113.5 74.5,113.5 73.5,113.5C 73.6663,106.492 73.4996,99.4921 73,92.5C 71.955,93.3734 71.1217,94.3734 70.5,95.5C 68.3023,95.5912 67.9689,94.9245 69.5,93.5C 71.5273,92.1394 73.194,90.4727 74.5,88.5 Z"/></g>
<g><path style="opacity:0.722" fill="#111010" d="M 77.5,56.5 C 78.3382,56.8417 78.6716,57.5084 78.5,58.5C 78.3505,59.552 78.5172,60.552 79,61.5C 79.9236,59.5049 81.0903,59.1716 82.5,60.5C 80.4484,62.9758 80.1151,65.6424 81.5,68.5C 82.287,70.1042 83.6203,70.7709 85.5,70.5C 86.1667,70.5 86.8333,70.5 87.5,70.5C 87.5,70.8333 87.5,71.1667 87.5,71.5C 84.9899,71.0535 82.9899,71.7202 81.5,73.5C 78.4306,74.8044 77.4306,76.8044 78.5,79.5C 78.5,82.5 78.5,85.5 78.5,88.5C 79.752,97.817 79.752,107.15 78.5,116.5C 77.3523,118.149 76.019,119.649 74.5,121C 71.1414,123.266 67.8081,125.433 64.5,127.5C 58.5,127.5 52.5,127.5 46.5,127.5C 45.0158,125.926 43.3492,124.593 41.5,123.5C 40.2402,121.633 38.5735,120.3 36.5,119.5C 35.0256,118.564 34.0256,117.23 33.5,115.5C 33.5,113.833 33.5,112.167 33.5,110.5C 36.6127,116.277 41.2793,120.277 47.5,122.5C 49.4338,123.532 51.6005,124.198 54,124.5C 62.4293,122.535 69.9293,118.868 76.5,113.5C 76.9505,105.04 76.2838,96.7065 74.5,88.5C 74.5,88.1667 74.5,87.8333 74.5,87.5C 75.4849,83.3656 75.8182,79.0323 75.5,74.5C 75.5,73.8333 75.5,73.1667 75.5,72.5C 75.5,69.8333 75.5,67.1667 75.5,64.5C 76.552,64.6495 77.552,64.4828 78.5,64C 77.565,61.6194 77.2317,59.1194 77.5,56.5 Z"/></g>
<g><path style="opacity:0.029" fill="#7e7e7e" d="M 36.5,119.5 C 38.5735,120.3 40.2402,121.633 41.5,123.5C 40.1266,123.657 38.7932,123.49 37.5,123C 37.8333,122.667 38.1667,122.333 38.5,122C 37.6195,121.292 36.9528,120.458 36.5,119.5 Z"/></g>
</svg>
